<svg width="0" height="0" class="hidden">
   <symbol fill="none" xmlns="http://www.w3.org/2000/svg" viewBox="0 0 146 66" width="145.81" height="66" id="logo">
    <path d="M0 14.581C0 6.528 6.528 0 14.581 0h29.163c8.053 0 14.582 6.528 14.582 14.581v29.163c0 8.053-6.529 14.582-14.582 14.582H14.581C6.528 58.326 0 51.797 0 43.744V14.581z" fill="#FCFCFC"></path>
    <g clip-path="url(#clip0)" fill="#000">
      <path d="M49.882 42.27l-.001-.018a.617.617 0 00-.01-.071l-.003-.007a.62.62 0 00-.017-.063l-.006-.016a.593.593 0 00-.023-.054l-.004-.01-3.247-6.479V14.236c0-.656-.527-1.19-1.175-1.19H12.93c-.648 0-1.175.534-1.175 1.19v21.316l-3.246 6.48a.627.627 0 00-.027.064l-.006.015a.63.63 0 00-.018.063l-.002.007a.61.61 0 00-.01.071l-.001.018-.002.039v1.558c0 .779.626 1.412 1.396 1.412h38.65c.77 0 1.396-.633 1.396-1.412v-1.558l-.002-.038zM12.968 14.276h32.39v20.81h-32.39v-20.81zm-.234 22.038h32.857l2.697 5.382H34.951l-.67-2.456a1.15 1.15 0 00-1.102-.85h-8.033c-.512 0-.966.35-1.102.85l-.67 2.456H10.038l2.697-5.382zm20.957 5.382h-9.057l.566-2.077h7.925l.566 2.077zm14.979 2.172a.183.183 0 01-.182.184H9.838a.183.183 0 01-.182-.184v-.944H48.67v.944z"></path>
      <path d="M43.134 25.326c-.337 0-.61.287-.61.642v6.515h-27.49v-6.515c0-.355-.274-.642-.61-.642-.337 0-.61.287-.61.642v6.792c0 .556.429 1.008.956 1.008h28.018c.527 0 .956-.452.956-1.008v-6.792c0-.355-.273-.642-.61-.642zm-.346-9.977H14.77c-.527 0-.956.452-.956 1.007v6.792c0 .355.273.643.61.643.337 0 .61-.288.61-.643v-6.514h27.49v6.514c0 .355.274.643.61.643.337 0 .61-.288.61-.643v-6.792c0-.555-.429-1.007-.956-1.007z"></path>
    </g>
    <path d="M88.187 26.122l3.906-20.75h5.958l-6.437 29.163h-6.017l-4.723-19.509-4.722 19.509h-6.018L63.698 5.372h5.958l3.925 20.71 4.782-20.71h5.062l4.762 20.75zm30.567-4.226h-11.477v7.812h13.47v4.827h-19.448V5.372h19.408v4.867h-13.43v6.95h11.477v4.707zm5.5 12.639V5.372h10.162c3.52 0 6.191.681 8.011 2.043 1.819 1.349 2.729 3.332 2.729 5.949 0 1.429-.365 2.69-1.096 3.785-.73 1.082-1.746 1.877-3.048 2.384 1.488.374 2.657 1.128 3.507 2.263.863 1.135 1.295 2.524 1.295 4.166 0 2.804-.89 4.928-2.67 6.37-1.78 1.442-4.318 2.176-7.612 2.203h-11.278zm5.978-12.699v7.872h5.121c1.408 0 2.504-.334 3.287-1.002.798-.68 1.196-1.615 1.196-2.804 0-2.67-1.375-4.026-4.125-4.066h-5.479zm0-4.246h4.423c3.016-.053 4.524-1.262 4.524-3.625 0-1.322-.386-2.27-1.156-2.845-.757-.587-1.96-.88-3.607-.88h-4.184v7.35zM66.767 55.2V44.743h3.176c.907 0 1.718.209 2.431.625a4.27 4.27 0 011.68 1.767c.401.761.602 1.628.602 2.6v.481c0 .972-.198 1.836-.595 2.593a4.248 4.248 0 01-1.666 1.76c-.718.416-1.528.627-2.43.631h-3.198zm2.127-8.711v6.98h1.028c.831 0 1.467-.275 1.906-.825.44-.551.664-1.339.674-2.363v-.553c0-1.063-.218-1.868-.652-2.413-.435-.551-1.07-.826-1.907-.826h-1.05zm13.524 4.18h-4.083v2.8h4.791V55.2H76.21V44.743h6.903v1.746h-4.777v2.492h4.083v1.688zm5.769 1.939l2.34-7.865h2.367L89.3 55.2h-2.218l-3.58-10.457h2.36l2.325 7.865zm11.894-1.939h-4.083v2.8h4.792V55.2h-6.918V44.743h6.903v1.746h-4.777v2.492h4.083v1.688zm4.082 2.801h4.515v1.73h-6.641V44.743h2.126v8.726zm13.765-3.261c0 1.03-.179 1.932-.539 2.707-.359.776-.874 1.375-1.545 1.796-.666.421-1.431.632-2.296.632-.855 0-1.619-.208-2.29-.625-.671-.416-1.19-1.01-1.559-1.781-.369-.776-.555-1.666-.56-2.672v-.517c0-1.03.182-1.934.546-2.715.368-.785.886-1.386 1.552-1.802.671-.422 1.437-.632 2.297-.632.86 0 1.623.21 2.289.632.671.416 1.188 1.017 1.552 1.802.369.78.553 1.683.553 2.708v.467zm-2.155-.474c0-1.097-.193-1.93-.581-2.5-.387-.57-.94-.854-1.658-.854-.714 0-1.264.282-1.652.847-.387.56-.583 1.384-.588 2.47v.51c0 1.069.194 1.897.581 2.486.388.589.945.883 1.673.883.713 0 1.261-.282 1.644-.847.383-.57.577-1.398.581-2.485v-.51zm5.827 1.781V55.2h-2.127V44.743h4.026c.775 0 1.456.144 2.042.431.59.288 1.044.697 1.36 1.228.317.527.475 1.128.475 1.803 0 1.025-.347 1.834-1.042 2.428-.689.588-1.646.883-2.87.883H121.6zm0-1.745h1.899c.563 0 .99-.134 1.283-.403.298-.268.447-.65.447-1.149 0-.512-.149-.926-.447-1.242-.298-.316-.709-.479-1.233-.488H121.6v3.282zm13.453.898h-4.083v2.8h4.791V55.2h-6.917V44.743h6.903v1.746h-4.777v2.492h4.083v1.688zm5.776.703h-1.694V55.2h-2.126V44.743h3.834c1.22 0 2.16.276 2.821.826.662.55.993 1.329.993 2.334 0 .714-.154 1.31-.461 1.789-.302.474-.763.852-1.382 1.135l2.233 4.273v.1h-2.283l-1.935-3.828zm-1.694-1.745h1.715c.534 0 .948-.136 1.241-.41.293-.277.439-.658.439-1.141 0-.493-.139-.881-.418-1.164-.274-.282-.697-.423-1.269-.423h-1.708v3.138z" fill="#FCFCFC"></path>
    <defs>
      <clipPath id="clip0">
        <path fill="#fff" transform="translate(10.744 10.744)" d="M0 0h55.256v55.256H0z"></path>
      </clipPath>
    </defs>
  </symbol>
  <symbol fill="none" xmlns="http://www.w3.org/2000/svg" viewBox="0 0 30 30" id="vk">
    <path d="M15 2.5c6.892 0 12.5 5.607 12.5 12.5 0 6.892-5.608 12.5-12.5 12.5-6.893 0-12.5-5.608-12.5-12.5C2.5 8.107 8.107 2.5 15 2.5zM15 0C6.716 0 0 6.716 0 15c0 8.284 6.716 15 15 15 8.284 0 15-6.716 15-15 0-8.284-6.716-15-15-15zm.726 19.996c.38 0 .536-.255.531-.572-.02-1.198.445-1.843 1.288-1.003.93.93 1.12 1.575 2.251 1.575h2.002c.503 0 .702-.162.702-.417 0-.54-.889-1.493-1.64-2.19-1.055-.979-1.102-1.003-.195-2.18 1.125-1.461 2.599-3.334 1.296-3.334h-2.488c-.484 0-.518.271-.69.678-.622 1.466-1.803 3.366-2.253 3.076-.471-.304-.255-1.504-.219-3.288.01-.471.008-.795-.713-.962a5.009 5.009 0 00-1.13-.129c-1.42 0-2.402.596-1.845.7.98.183.888 2.308.658 3.225-.399 1.598-1.897-1.265-2.522-2.69-.15-.344-.194-.61-.733-.61H7.992c-.308 0-.492.1-.492.322 0 .377 1.849 4.2 3.615 6.107 1.724 1.859 3.428 1.692 4.611 1.692z" fill="#FCFCFC"></path>
  </symbol>
  <symbol fill="none" xmlns="http://www.w3.org/2000/svg" viewBox="0 0 30 30" id="telegram">
    <path d="M15 30c8.271 0 15-6.729 15-15S23.271 0 15 0 0 6.729 0 15s6.729 15 15 15zm0-28.125c7.238 0 13.125 5.888 13.125 13.125 0 7.238-5.887 13.125-13.125 13.125-7.237 0-13.125-5.887-13.125-13.125C1.875 7.763 7.763 1.875 15 1.875z" fill="#FCFCFC"></path>
    <path d="M9.87 17.694l1.96-.851-.55.55a.938.938 0 00-.275.663v3.669c0 .84 1.015 1.247 1.6.662l1.967-1.967 4.288 2.144a.938.938 0 001.341-.672l2.447-13.45A.94.94 0 0021.383 7.4L5.486 13.621a.939.939 0 00-.162 1.664l3.667 2.34a.936.936 0 00.878.069zM20.503 9.76L18.58 20.329l-3.775-1.887a.935.935 0 00-1.081.177l-.845.845v-1.016l3.759-3.76c.729-.728-.091-1.93-1.037-1.522l-6.02 2.613-1.693-1.08L20.503 9.76z" fill="#FCFCFC"></path>
  </symbol>
  <symbol fill="none" xmlns="http://www.w3.org/2000/svg" viewBox="0 0 30 30" id="youtube">
    <path d="M13.132 17.81L18.01 15l-4.88-2.81v5.62z" fill="#FCFCFC"></path>
    <path d="M15 0C6.717 0 0 6.717 0 15c0 8.283 6.717 15 15 15 8.283 0 15-6.717 15-15 0-8.283-6.717-15-15-15zm9.373 15.015s0 3.042-.386 4.51a2.349 2.349 0 01-1.652 1.651c-1.467.387-7.335.387-7.335.387s-5.852 0-7.335-.402a2.349 2.349 0 01-1.652-1.652C5.627 18.057 5.627 15 5.627 15s0-3.042.386-4.509a2.396 2.396 0 011.652-1.667C9.132 8.438 15 8.438 15 8.438s5.868 0 7.334.401c.803.216 1.436.85 1.653 1.652.401 1.467.386 4.524.386 4.524z" fill="#FCFCFC"></path>
  </symbol>
  <symbol fill="none" xmlns="http://www.w3.org/2000/svg" viewBox="0 0 30 30" id="instagram">
    <g clip-path="url(#clip0)" fill="#FCFCFC">
      <path d="M29.97 8.82c-.07-1.594-.327-2.69-.697-3.64a7.32 7.32 0 00-1.735-2.66A7.383 7.383 0 0024.884.791c-.955-.37-2.046-.627-3.64-.697C19.64.018 19.13 0 15.056 0c-4.073 0-4.583.018-6.183.088-1.594.07-2.69.328-3.64.697a7.32 7.32 0 00-2.66 1.735 7.386 7.386 0 00-1.73 2.655C.476 6.13.218 7.22.148 8.815.07 10.42.053 10.93.053 15.002c0 4.073.017 4.583.088 6.183.07 1.594.328 2.69.697 3.64a7.398 7.398 0 001.735 2.66 7.383 7.383 0 002.655 1.729c.955.369 2.045.627 3.64.697 1.599.07 2.109.088 6.182.088s4.583-.017 6.183-.088c1.594-.07 2.69-.328 3.639-.697a7.673 7.673 0 004.39-4.39c.369-.955.627-2.045.697-3.64.07-1.6.088-2.109.088-6.182s-.006-4.583-.076-6.183zm-2.7 12.249c-.066 1.465-.312 2.256-.517 2.783a4.976 4.976 0 01-2.848 2.849c-.527.205-1.324.45-2.784.515-1.582.07-2.057.088-6.06.088-4.002 0-4.483-.017-6.06-.088-1.464-.064-2.256-.31-2.783-.515a4.617 4.617 0 01-1.723-1.12 4.665 4.665 0 01-1.12-1.723c-.205-.527-.45-1.324-.515-2.784-.07-1.582-.088-2.057-.088-6.06 0-4.002.018-4.483.088-6.06.064-1.464.31-2.255.516-2.783A4.56 4.56 0 014.5 4.448a4.657 4.657 0 011.723-1.12c.527-.204 1.324-.45 2.784-.515 1.582-.07 2.057-.088 6.06-.088 4.008 0 4.483.018 6.06.088 1.464.065 2.256.31 2.783.516.65.24 1.242.62 1.723 1.119a4.664 4.664 0 011.12 1.723c.204.528.45 1.325.515 2.784.07 1.582.088 2.057.088 6.06 0 4.002-.018 4.471-.088 6.054z"></path>
      <path d="M15.056 7.296a7.709 7.709 0 00-7.707 7.707 7.709 7.709 0 007.707 7.706 7.708 7.708 0 007.706-7.706 7.708 7.708 0 00-7.706-7.707zm0 12.706a5 5 0 11.001-10 5 5 0 01-.001 10zm9.81-13.01a1.8 1.8 0 11-3.598 0 1.8 1.8 0 013.598 0z"></path>
    </g>
    <defs>
      <clipPath id="clip0">
        <path fill="#fff" d="M0 0h30v30H0z"></path>
      </clipPath>
    </defs>
  </symbol>
  <symbol fill="none" xmlns="http://www.w3.org/2000/svg" viewBox="0 0 50 50" id="conversation-img">
    <path d="M44.262 47.541H4.918a.82.82 0 000 1.64h39.344a.82.82 0 000-1.64zM9.016 29.508a4.099 4.099 0 014.099 4.099v3.278a.82.82 0 101.64 0v-3.278a5.738 5.738 0 00-4.1-5.5v-1.96a4.098 4.098 0 003.28-4.016v-4.205a3.279 3.279 0 002.458-3.172v-2.459a.82.82 0 00-.82-.82H6.558a4.918 4.918 0 00-4.918 4.918v3.28a3.28 3.28 0 002.46 3.171v5.263a5.738 5.738 0 00-4.1 5.5v11.475a.82.82 0 001.64 0V33.607a4.099 4.099 0 014.098-4.099h3.278zm3.28-7.377a2.46 2.46 0 01-2.46 2.46H5.738v-1.64h.82a1.64 1.64 0 001.639-1.64v-3.278h4.098v4.098zm-9.017-2.459v-3.279a3.279 3.279 0 013.278-3.278h8.197v1.64a1.64 1.64 0 01-1.64 1.638H7.378a.82.82 0 00-.82.82v4.098h-1.64a1.64 1.64 0 01-1.64-1.639zm2.459 6.558h3.278v1.639H5.738v-1.64zm40.983-2.46v-2.196A5.737 5.737 0 0050 16.394v-.82a5.737 5.737 0 00-5.738-5.738h-8.196a4.099 4.099 0 00-4.099 4.5 4.18 4.18 0 003.279 3.59v4.205a4.098 4.098 0 003.279 4.016v1.96a5.738 5.738 0 00-4.099 5.5v3.278a.82.82 0 101.64 0v-3.279a4.099 4.099 0 014.098-4.098h3.279a4.098 4.098 0 014.098 4.098v11.476a.82.82 0 001.64 0V33.606a5.738 5.738 0 00-4.099-5.5V26.09a2.459 2.459 0 001.64-2.32zm-13.114-9.59a2.46 2.46 0 01.639-1.885 2.458 2.458 0 011.82-.82h8.196a4.099 4.099 0 014.099 4.099v.82a4.099 4.099 0 01-2.664 3.836h-.066a4.014 4.014 0 01-1.188.229h-1.82a.82.82 0 01-.82-.82v-2.426a.82.82 0 00-.82-.82h-4.778a2.565 2.565 0 01-2.598-2.213zm3.278 7.951v-4.098h3.279v1.64a2.46 2.46 0 002.459 2.458h1.885c.197 0 .386 0 .574-.05v1.69a.82.82 0 01-.82.82h-4.918a2.46 2.46 0 01-2.459-2.46zm3.279 5.738v-1.64h3.279v1.64h-3.279z" fill="#000"></path>
    <path d="M44.262 33.607a.82.82 0 00-.82.82v7.376a2.46 2.46 0 01-2.458 2.46h-8.197v-3.28h6.557a.82.82 0 00.82-.82v-5.737a.82.82 0 00-1.64 0v4.918h-8.196a3.279 3.279 0 00-2.836 4.918h-5.803a3.278 3.278 0 00-2.837-4.918h-8.196v-4.918a.82.82 0 00-1.64 0v5.738c0 .453.367.82.82.82h6.557v3.278H8.197a2.46 2.46 0 01-2.46-2.459v-7.377a.82.82 0 00-1.639 0v7.377a4.099 4.099 0 004.099 4.099h32.787a4.099 4.099 0 004.098-4.099v-7.377a.82.82 0 00-.82-.82zm-26.23 10.655v-3.278h.82a1.64 1.64 0 010 3.278h-.82zm10.657-1.639c0-.905.734-1.64 1.639-1.64h.82v3.28h-.82a1.64 1.64 0 01-1.64-1.64zM9.016 9.836H26.23a3.279 3.279 0 003.278-3.279V2.46A2.46 2.46 0 0027.05 0H15.574a2.46 2.46 0 00-2.46 2.459v1.303l-4.68 4.672a.82.82 0 00-.172.894.82.82 0 00.754.508zm5.5-5.156a.82.82 0 00.238-.582V2.46a.82.82 0 01.82-.82h11.475a.82.82 0 01.82.82v4.098a1.64 1.64 0 01-1.64 1.64H10.993l3.524-3.517z" fill="#000"></path>
    <path d="M20.492 4.098h-3.279a.82.82 0 000 1.64h3.279a.82.82 0 000-1.64zm4.918 0h-1.64a.82.82 0 000 1.64h1.64a.82.82 0 000-1.64zm-5.738 13.935a2.46 2.46 0 00-2.459 2.459v8.197a2.46 2.46 0 002.46 2.459h4.532l3.852 4.623a.82.82 0 001.451-.525v-4.099a2.46 2.46 0 002.46-2.458v-8.197a2.46 2.46 0 00-2.46-2.46h-9.836zm10.656 2.459v8.197a.82.82 0 01-.82.82h-.82a.82.82 0 00-.82.819v2.656l-2.647-3.18a.82.82 0 00-.63-.296h-4.919a.82.82 0 01-.82-.82v-8.196a.82.82 0 01.82-.82h9.836a.82.82 0 01.82.82z" fill="#000"></path>
    <path d="M21.311 22.95h2.46a.82.82 0 000-1.639h-2.46a.82.82 0 100 1.64zm5.739 3.28h-5.74a.82.82 0 000 1.639h5.738a.82.82 0 100-1.64zm.819-3.28h-1.64a.82.82 0 000 1.64h1.64a.82.82 0 100-1.64z" fill="#000"></path>
  </symbol>
  <symbol fill="none" xmlns="http://www.w3.org/2000/svg" viewBox="0 0 50 50" id="offer-img">
    <path d="M49.904 11.844a2.499 2.499 0 00-1.167-1.517 2.5 2.5 0 00-3.416.916l-.417.726a.833.833 0 00-1.133.3l-2.116 3.607-.725-.416a.834.834 0 00-1.142.308.833.833 0 00.309 1.133l.725.416L33.74 29.59l-1.75 4.675-.833 1.558a2.5 2.5 0 00.133 2.7l-1.875 2.299-.524-1.316a1.666 1.666 0 00-2.975-.234l-.3.508-.283-3.333a1.667 1.667 0 00-3.241-.39l-2.05 6.148a.833.833 0 00.525 1.05c.081.038.169.06.258.066a.833.833 0 00.792-.566l2.041-6.149.292 3.383a1.667 1.667 0 003.09.716l.31-.508.516 1.308a1.666 1.666 0 002.85.425l1.94-2.458c.215.056.437.085.659.084a2.5 2.5 0 002.174-1.234l.834-1.391 3.174-3.858 7.157-12.423.725.417a.833.833 0 01.309 1.141l-3.333 5.775a.832.832 0 00.266 1.174.832.832 0 001.142-.308l3.333-5.774a2.498 2.498 0 00-.917-3.416l-.725-.417 2.083-3.608a.833.833 0 00-.3-1.133l.417-.725a2.499 2.499 0 00.25-1.932zm-3.142.233a.834.834 0 01.509-.392.875.875 0 01.633.084c.193.11.334.293.392.508a.875.875 0 01-.084.633l-.416.725-1.45-.833.416-.725zM35.406 35.34l-.417-.242-1.233-.717 1.183-3.166 2.625 1.516-2.158 2.609zm-2.5 2.407a.833.833 0 01-.25-1.091l.417-.725 1.45.834-.417.716a.833.833 0 01-1.2.266zm5.608-6.382L35.63 29.7l6.666-11.548 2.882 1.666-6.665 11.548zm7.499-12.99L43.13 16.71l1.666-2.883 2.883 1.667-1.666 2.883zm-32.865 18.96l-2.95 2.942-1.766-1.767a.833.833 0 10-1.175 1.183l1.767 1.767c.312.31.734.483 1.175.483.442.003.868-.171 1.183-.483l2.94-2.95a.833.833 0 00-1.174-1.175z" fill="#000"></path>
    <path d="M3.333 39.577a7.082 7.082 0 1014.164 0 .833.833 0 00-1.666 0 5.416 5.416 0 11-2.167-4.333.833.833 0 101-1.333 7.083 7.083 0 00-11.331 5.666zM29.995 6.665a.833.833 0 100-1.666H8.332a.833.833 0 00-.833.833v3.333c0 .46.373.833.833.833h21.663a.833.833 0 100-1.666H9.165V6.665h20.83zm-19.163 5a.833.833 0 000 1.666h16.663a.833.833 0 100-1.666H10.831zm21.663 5.832h-18.33a.833.833 0 000 1.666h18.33a.833.833 0 100-1.666zm-8.332 5.833a.833.833 0 00-.834-.834H6.666a.833.833 0 100 1.667h16.663c.46 0 .834-.373.834-.834zm8.331-.834h-5.832a.833.833 0 100 1.667h5.832a.833.833 0 100-1.667zm-17.497 5.832a.833.833 0 100-1.666H6.666a.833.833 0 000 1.666h8.331zm3.333 0h5.833a.833.833 0 100-1.666H18.33a.833.833 0 000 1.666z" fill="#000"></path>
    <path d="M37.494 38.327a.833.833 0 00-.834.833v8.332c0 .46-.373.833-.833.833H2.5a.833.833 0 01-.834-.833V2.5c0-.46.373-.834.834-.834h33.327c.46 0 .833.373.833.834v15.647a.833.833 0 001.667 0V2.5a2.5 2.5 0 00-2.5-2.5H2.5A2.5 2.5 0 000 2.5v44.992a2.5 2.5 0 002.5 2.5h33.327a2.5 2.5 0 002.5-2.5V39.16a.833.833 0 00-.833-.833z" fill="#000"></path>
  </symbol>
  <symbol fill="none" xmlns="http://www.w3.org/2000/svg" viewBox="0 0 50 50" id="deadline-img">
    <path d="M42.11 36.703l-2.949 2.95-1.767-1.775a.836.836 0 10-1.182 1.183l2.357 2.358a.833.833 0 001.184 0l3.574-3.541a.833.833 0 10-1.175-1.175h-.041z" fill="#000"></path>
    <path d="M43.327 30.912V28.33a.833.833 0 00-.833-.833h-2.5v-.833a2.5 2.5 0 012.5-2.5.833.833 0 000-1.666 4.166 4.166 0 00-4.166 4.166v.833h-2.5a.833.833 0 00-.833.833v2.583a9.999 9.999 0 108.332 0zm-3.333 17.414v-.833a.833.833 0 00-1.666 0v.833a8.332 8.332 0 01-7.5-7.499h.834a.833.833 0 000-1.666h-.833a8.332 8.332 0 015.258-6.924.834.834 0 00.533-.775v-2.3h5v2.3c0 .344.212.651.532.775a8.332 8.332 0 015.341 6.924h-.833a.833.833 0 000 1.666h.833a8.332 8.332 0 01-7.499 7.5z" fill="#000"></path>
    <path d="M26.838 43.327H4.166a2.5 2.5 0 01-2.5-2.5V14.165h43.327v15.38a.833.833 0 001.667 0V8.333c0-2.3-1.865-4.166-4.166-4.166h-1.667v-.833a.833.833 0 00-1.666 0v3.333a1.667 1.667 0 01-3.333 0V3.333c0-.92.746-1.667 1.667-1.667a.833.833 0 000-1.666 3.333 3.333 0 00-3.333 3.333v.833h-7.5v-.833a.833.833 0 00-1.666 0v3.333a1.667 1.667 0 01-3.332 0V3.333c0-.92.746-1.667 1.666-1.667a.833.833 0 100-1.666 3.333 3.333 0 00-3.333 3.333v.833h-7.499v-.833a.833.833 0 00-1.666 0v3.333a1.667 1.667 0 01-3.333 0V3.333c0-.92.746-1.667 1.666-1.667a.833.833 0 000-1.666 3.333 3.333 0 00-3.333 3.333v.833H4.166A4.166 4.166 0 000 8.332v32.495a4.166 4.166 0 004.166 4.166H23.33c4.374 0 4.374 0 4.374-.833a.834.834 0 00-.241-.591.832.832 0 00-.625-.242zM4.166 5.832h1.666v.834a3.333 3.333 0 006.666 0v-.834h7.5v.834a3.333 3.333 0 006.665 0v-.834h7.499v.834a3.333 3.333 0 006.665 0v-.834h1.667a2.5 2.5 0 012.5 2.5v4.166H1.665V8.332a2.5 2.5 0 012.5-2.5z" fill="#000"></path>
    <path d="M14.998 17.497a.833.833 0 00-.833-.833H7.499a.833.833 0 00-.833.833v6.666c0 .46.373.833.833.833h6.666c.46 0 .833-.373.833-.833v-6.666zm-1.666 5.833h-5v-5h5v5zm.833 6.666a.833.833 0 000-1.667H7.499a.833.833 0 00-.833.833v6.666c0 .46.373.833.833.833h6.666c.46 0 .833-.373.833-.833v-3.333a.833.833 0 00-1.666 0v2.5h-5v-5h5.833zm4.999-1.666a.833.833 0 00-.833.832v6.666c0 .46.373.833.833.833h6.666c.46 0 .833-.373.833-.833v-6.666a.833.833 0 00-.833-.833h-6.666zm5.832 6.665h-4.999v-5h5v5zM37.495 23.33c.46 0 .833-.373.833-.833v-5a.833.833 0 00-.833-.833h-6.666a.833.833 0 00-.833.833v6.666a.833.833 0 001.666 0v-5.832h5v4.166c0 .46.373.833.833.833zm-11.074-6.424a.833.833 0 00-1.183 0l-2.741 2.75-2.741-2.75a.837.837 0 00-1.183 1.183l2.749 2.741-2.75 2.742a.832.832 0 000 1.183.832.832 0 001.184 0l2.74-2.75 2.742 2.75a.832.832 0 001.183 0 .832.832 0 000-1.183l-2.75-2.742 2.75-2.741a.832.832 0 000-1.183z" fill="#000"></path>
  </symbol>
  <symbol fill="none" xmlns="http://www.w3.org/2000/svg" viewBox="0 0 50 50" id="agreement-img">
    <path d="M48.514 20.963l-8.241 8.241-4.704-4.712 3.555-3.53a.833.833 0 00-1.174-1.173l-3.563 3.521-2.348-2.356 8.234-8.242a.833.833 0 000-1.174.833.833 0 00-1.174 0l-8.833 8.834a.832.832 0 000 1.182l1.182 1.173-1.182 1.183a4.162 4.162 0 00-5.236-.533l-.65-.65a4.164 4.164 0 00-2.939-1.215c-.52 0-1.037.096-1.523.283l-1.424-1.424.591-.582a.833.833 0 000-1.183l-8.266-8.241a.833.833 0 10-1.174 1.182l7.65 7.65-.59.583-4.163 4.121-2.939-2.947a.832.832 0 10-1.182 1.174l2.947 2.947-1.182 1.174-1.107 1.224-7.651-7.684a.832.832 0 00-1.182 0 .833.833 0 000 1.174l8.242 8.241c.157.156.37.243.59.242a.834.834 0 00.592-.242l1.149-1.174 1.173 1.174a4.163 4.163 0 000 5.886l1.566 1.54a.832.832 0 001.182 0 .833.833 0 000-1.174l-1.54-1.54a2.497 2.497 0 010-3.538l.583-.583 5.893-5.894a2.565 2.565 0 013.53 0l5.295 5.295a.833.833 0 01-1.174 1.174l-3.838-3.838a.839.839 0 10-1.182 1.19l3.838 3.838a2.498 2.498 0 103.538-3.53l-3.43-3.43a2.572 2.572 0 012.839.483l7.068 7.068a2.5 2.5 0 01.725 1.765 2.497 2.497 0 01-.725 1.765l-2.356 2.356-2.414 2.406-1.707 1.715-4.712 4.712a.833.833 0 01-1.174 0 .832.832 0 010-1.174l5.337-5.311a.832.832 0 10-1.174-1.174l-5.303 5.295a.833.833 0 01-1.174-1.174l5.295-5.295a.832.832 0 10-1.174-1.182L20.3 42.158a.832.832 0 11-1.174-1.182l5.295-5.295a.832.832 0 000-1.182.833.833 0 00-1.174 0l-5.303 5.303a.833.833 0 01-1.174-1.182l6.402-6.394a.836.836 0 10-1.182-1.182l-6.435 6.419a2.498 2.498 0 000 3.53c.43.439 1.009.7 1.623.732a2.498 2.498 0 002.356 2.348 2.498 2.498 0 002.356 2.356c.024.626.283 1.22.724 1.665a2.5 2.5 0 002.847.483l.683.69a2.499 2.499 0 004.262-1.664 2.448 2.448 0 001.665-.725c.433-.434.69-1.011.725-1.623a2.497 2.497 0 002.356-2.356 2.497 2.497 0 001.665-4.262l-.591-.583 1.182-1.182a4.163 4.163 0 001.215-2.94 4.164 4.164 0 00-.757-2.297l1.257-1.257.591.591a.833.833 0 001.174 0l8.807-8.833a.832.832 0 10-1.182-1.173zm-36.496 5.885l5.303-5.294 1.173 1.173L13.2 28.03l-1.182-1.182zM28.5 48.044a.832.832 0 01-1.174 0l-.59-.591 1.182-1.174.582.583a.832.832 0 010 1.182zm2.356-2.356a.833.833 0 01-1.174 0l-.55-.591.592-.591.582-.583.592.583a.834.834 0 010 1.182h-.042zm2.356-2.356a.833.833 0 01-1.174 0l-.59-.591 1.173-1.174.591.591a.832.832 0 010 1.174zm2.356-2.356a.834.834 0 01-1.182 0l-.583-.591 1.157-1.174.592.591c.327.32.334.845.016 1.174zm1.174-10.598l-5.295-5.295 1.174-1.173 5.303 5.294-1.182 1.174z" fill="#000"></path>
    <path d="M15.814 13.32h18.315c.46 0 .833-.373.833-.832V.833A.833.833 0 0034.129 0H15.814a.833.833 0 00-.833.833v11.655c0 .46.373.832.833.832zm.832-3.33c.92 0 1.665.746 1.665 1.665h-1.665V9.99zm16.65 1.665h-1.665c0-.92.746-1.665 1.666-1.665v1.665zm0-8.325a1.666 1.666 0 01-1.665-1.665h1.666V3.33zm0 1.665v3.33a3.33 3.33 0 00-3.33 3.33h-9.99a3.33 3.33 0 00-3.33-3.33v-3.33a3.33 3.33 0 003.33-3.33h9.99a3.33 3.33 0 003.33 3.33zm-16.65-3.33h1.665c0 .92-.745 1.665-1.665 1.665V1.665z" fill="#000"></path>
    <path d="M24.971 9.99a3.33 3.33 0 100-6.66 3.33 3.33 0 000 6.66zm0-4.995a1.665 1.665 0 110 3.33 1.665 1.665 0 010-3.33zm6.66 1.665a.833.833 0 11-1.665 0 .833.833 0 011.665 0zm-11.655 0a.833.833 0 11-1.665 0 .833.833 0 011.665 0zm29.829-1.29L46.475.375a.832.832 0 00-1.382 0l-3.33 4.995a.832.832 0 00-.142.457v3.33a.833.833 0 001.665 0v-3.08l2.498-3.746 2.498 3.746v8.908a.833.833 0 001.665 0V5.827a.831.831 0 00-.142-.457z" fill="#000"></path>
    <path d="M46.617 11.655V6.66a.833.833 0 00-1.665 0v4.995a.833.833 0 001.665 0zM.829 7.493h.832v9.99a.833.833 0 001.665 0V6.66a.833.833 0 00-.832-.832h-.05L4.99 2.265l2.55 3.563h-.05a.833.833 0 00-.833.832v1.665a.833.833 0 001.665 0v-.832h.833a.833.833 0 00.674-1.316L5.666.35a.833.833 0 00-1.35 0L.155 6.177A.832.832 0 00.83 7.493z" fill="#000"></path>
    <path d="M4.991 11.655v2.498a.833.833 0 001.665 0v-2.498a.833.833 0 00-1.665 0z" fill="#000"></path>
  </symbol>
  <symbol fill="none" xmlns="http://www.w3.org/2000/svg" viewBox="0 0 50 50" id="steps-img">
    <path d="M48.328 35.63v-2.3h.833c.23.001.45-.093.608-.259a.883.883 0 00.225-.575l-1.491-28.33a4.35 4.35 0 00-8.683 0l-1.491 28.33a.884.884 0 00.225.617.83.83 0 00.608.217h.833v2.3l-1.575 3.157a.833.833 0 000 .75l5 10a.824.824 0 00.517.432h.458a.833.833 0 00.341-.191.715.715 0 00.175-.242l5-9.999a.833.833 0 000-.75l-1.583-3.158zm-8.291-3.967l.35-6.666h7.549l.392 6.666h-8.291zm1.45-27.455a2.675 2.675 0 115.35 0l1.007 19.165H40.48l.091-1.667h4.641a.833.833 0 100-1.666h-4.557l.833-15.832zM46.66 33.33v1.666h-5V33.33h5zm-1.666 12.298v-5.633h.833a.833.833 0 000-1.666h-3.333a.833.833 0 000 1.666h.833v5.633l-3.233-6.466 1.25-2.5h5.633l1.25 2.5-3.233 6.466zM28.33 10.832a.833.833 0 000-1.666H6.666a.833.833 0 00-.833.833v3.333c0 .46.373.833.833.833H28.33a.833.833 0 000-1.666H7.5v-1.667h20.83zm.833 7.499a.833.833 0 00-.833-.833H10a.833.833 0 000 1.666h18.33c.46 0 .833-.373.833-.833zM5 22.497c0 .46.373.834.833.834h13.332a.833.833 0 000-1.667H5.832a.833.833 0 00-.834.833zm19.164-.833a.833.833 0 000 1.667h3.333a.833.833 0 000-1.667h-3.333zm-7.499 4.999a.833.833 0 00-.833-.833h-10a.833.833 0 000 1.667h10c.46 0 .833-.373.833-.834zm-.833 4.167a.833.833 0 00-.834-.833H5.833a.833.833 0 000 1.666h9.165c.46 0 .834-.373.834-.833zm-9.999 3.333a.833.833 0 000 1.666h5.832a.833.833 0 000-1.666H5.833z" fill="#000"></path>
    <path d="M32.496 0H2.5A2.5 2.5 0 000 2.5v38.329a2.5 2.5 0 002.5 2.5h14.165a.833.833 0 000-1.667H2.5a.833.833 0 01-.834-.833V7.499H33.33v33.33c0 .46-.374.833-.834.833h-2.5a.833.833 0 000 1.666h2.5a2.5 2.5 0 002.5-2.5V2.5a2.5 2.5 0 00-2.5-2.5zM1.666 5.833V2.5c0-.46.374-.834.834-.834h29.996c.46 0 .834.374.834.834v3.333H1.666z" fill="#000"></path>
    <path d="M23.33 30.83a2.5 2.5 0 100 5 2.5 2.5 0 000-5zm0 3.333a.833.833 0 110-1.667.833.833 0 010 1.667z" fill="#000"></path>
    <path d="M29.997 33.33a2.5 2.5 0 00-1.334-2.209 2.5 2.5 0 00-3.124-3.124 2.5 2.5 0 00-4.416 0 2.5 2.5 0 00-3.125 3.124 2.499 2.499 0 000 4.416 2.5 2.5 0 00.616 2.5c.163.163.348.3.55.409V49.16a.833.833 0 00.517.766.83.83 0 00.908-.175l2.742-2.749 2.741 2.75a.832.832 0 00.908.174.833.833 0 00.517-.766V38.454c.202-.109.387-.246.55-.408a2.5 2.5 0 00.616-2.5 2.5 2.5 0 001.334-2.217zm-6.075 11.906a.833.833 0 00-1.183 0l-1.908 1.917v-8.416l.292-.075a2.5 2.5 0 004.416 0l.291.075v8.416l-1.908-1.917zm3.575-11.073h-.142a.834.834 0 00-.591 1.425l.1.1a.833.833 0 010 1.174.791.791 0 01-.334.209h-.125a.834.834 0 01-.716-.234l-.1-.1a.834.834 0 00-1.425.592v.167a.833.833 0 01-1.667 0v-.142a.834.834 0 00-.516-.775.833.833 0 00-.317-.058.834.834 0 00-.591.242l-.1.1a.832.832 0 01-.717.233h-.125a.784.784 0 01-.334-.209.833.833 0 010-1.175l.11-.1a.834.834 0 00-.593-1.424h-.15a.833.833 0 010-1.667h.142a.834.834 0 00.592-1.425l-.1-.1a.834.834 0 011.175-1.183l.1.109a.833.833 0 001.424-.592v-.167a.833.833 0 011.667 0v.142a.833.833 0 001.425.591l.1-.1a.834.834 0 011.183 1.175l-.108.1a.834.834 0 00.591 1.425h.142a.833.833 0 010 1.667z" fill="#000"></path>
  </symbol>
  <symbol fill="none" xmlns="http://www.w3.org/2000/svg" viewBox="0 0 50 50" id="storage-img">
    <path d="M49.167 24.167H30.108a.833.833 0 000 1.666h18.225v8.334h-4.166v-5.834a.833.833 0 00-1.667 0v5.834H20v-8.334h5a.833.833 0 000-1.666h-5.833a.833.833 0 00-.834.833v10c0 .46.373.833.834.833h7.5V37.5h-7.5a.833.833 0 00-.834.833v5.834h-2.5v-.834A.833.833 0 0015 42.5h-2.5v-4.167a.833.833 0 10-1.667 0v5c0 .46.373.834.834.834h2.5v1.666H5.833v-1.666h2.5c.46 0 .834-.373.834-.834v-5a.833.833 0 10-1.667 0V42.5H5a.833.833 0 00-.833.833v.834H.833a.833.833 0 000 1.666h3.334v.834c0 .46.373.833.833.833h10c.46 0 .833-.373.833-.833v-.834h2.5v2.5c0 .46.373.834.834.834h30c.46 0 .833-.373.833-.834v-10a.833.833 0 00-.833-.833h-7.5v-1.667h7.5c.46 0 .833-.373.833-.833V25a.833.833 0 00-.833-.833zM48.333 47.5H20v-8.333h22.5V45a.833.833 0 001.667 0v-5.833h4.166V47.5zM40 37.5H28.333v-1.667H40V37.5z" fill="#000"></path>
    <path d="M25 27.5a2.5 2.5 0 100 5 2.5 2.5 0 000-5zm0 3.333a.833.833 0 110-1.667.833.833 0 010 1.667zm5 1.667c.46 0 .833-.373.833-.833v-3.334a.833.833 0 00-1.666 0v3.334c0 .46.373.833.833.833zm4.167-.833v-3.334a.833.833 0 00-1.667 0v3.334a.833.833 0 001.667 0zm3.333 0v-3.334a.833.833 0 00-1.667 0v3.334a.833.833 0 001.667 0zm3.333 0v-3.334a.833.833 0 00-1.666 0v3.334a.833.833 0 001.666 0zM26.666 42.5a.833.833 0 00-.833.833A.833.833 0 1125 42.5a.833.833 0 000-1.667 2.5 2.5 0 102.5 2.5.833.833 0 00-.834-.833zM30 40.833a.833.833 0 00-.833.834V45a.833.833 0 001.666 0v-3.333a.833.833 0 00-.833-.834zm3.333 0a.833.833 0 00-.833.834V45a.833.833 0 001.667 0v-3.333a.833.833 0 00-.834-.834zm3.334 0a.833.833 0 00-.834.834V45a.833.833 0 001.667 0v-3.333a.833.833 0 00-.833-.834zm3.333 0a.833.833 0 00-.834.834V45a.833.833 0 001.667 0v-3.333a.833.833 0 00-.833-.834zM6.317 29.842a.88.88 0 00.35.075.833.833 0 00.35-1.584 9.166 9.166 0 016.316-17.15.833.833 0 001.009-.5A14.083 14.083 0 0127.5 1.668a14.25 14.25 0 0113.833 11.125.833.833 0 00.684.642 7.5 7.5 0 016.316 7.4 6.49 6.49 0 01-.05.724.835.835 0 101.659.184 7.95 7.95 0 00.058-.909 9.117 9.117 0 00-7.167-8.941A15.933 15.933 0 0027.5 0a15.742 15.742 0 00-14.458 9.4 10.462 10.462 0 00-2.209-.233 10.834 10.834 0 00-4.516 20.675z" fill="#000"></path>
    <path d="M13.333 30.509c.07.011.14.011.209 0A10.54 10.54 0 0016.25 29.4a.833.833 0 00-.833-1.441 9.182 9.182 0 01-2.292.941.84.84 0 00.208 1.667v-.058z" fill="#000"></path>
    <path d="M10 35.833c.46 0 .834-.373.834-.833V21.917l1.808 2.708a.833.833 0 00.692.375.78.78 0 00.458-.142.833.833 0 00.233-1.15l-3.333-5-.042-.041a.833.833 0 00-1.3 0l-.042.041-3.333 5a.833.833 0 001.384.917l1.808-2.708V35c0 .46.373.833.833.833zm21.291-20.691a.833.833 0 00-1.15.233l-1.808 2.709v-9.75a.833.833 0 00-1.666 0v9.75l-1.809-2.709a.834.834 0 10-1.383.917l3.333 5a.834.834 0 001.384 0l3.333-5a.833.833 0 00-.234-1.15z" fill="#000"></path>
  </symbol>
  <symbol fill="none" xmlns="http://www.w3.org/2000/svg" viewBox="0 0 257 116" id="footer-logo">
    <path d="M0 25.628C0 11.474 11.474 0 25.628 0h51.256c14.154 0 25.628 11.474 25.628 25.628v51.256c0 14.154-11.474 25.628-25.628 25.628H25.628C11.474 102.512 0 91.038 0 76.884V25.628z" fill="#FCFCFC"></path>
    <g clip-path="url(#clip0)" fill="#000">
      <path d="M87.671 74.294c0-.011 0-.022-.002-.033a1.057 1.057 0 00-.018-.125l-.003-.012a1.067 1.067 0 00-.031-.11l-.01-.03a1.062 1.062 0 00-.041-.095l-.007-.016-5.706-11.388V25.02c0-1.153-.927-2.09-2.066-2.09H22.724c-1.139 0-2.065.937-2.065 2.09v37.465l-5.706 11.388-.007.016a1.13 1.13 0 00-.04.095l-.011.029a1.105 1.105 0 00-.031.11l-.003.012a1.065 1.065 0 00-.019.126l-.001.032c-.002.023-.004.045-.004.068v2.738c0 1.369 1.1 2.482 2.453 2.482h67.931c1.353 0 2.453-1.113 2.453-2.482v-2.738c0-.023-.002-.045-.003-.067zM22.793 25.089h56.926v36.575H22.793V25.088zm-.412 38.733h57.75l4.74 9.46H61.428l-1.177-4.317a2.018 2.018 0 00-1.937-1.493H44.196c-.9 0-1.697.614-1.937 1.493l-1.176 4.316H17.64l4.74-9.459zm36.834 9.46H43.297l.995-3.65H58.22l.995 3.65zm26.325 3.817a.322.322 0 01-.319.323h-67.93a.322.322 0 01-.32-.323V75.44h68.57v1.659z"></path>
      <path d="M75.812 44.511c-.592 0-1.072.506-1.072 1.13v11.45H26.422V45.64c0-.624-.48-1.13-1.071-1.13-.592 0-1.072.506-1.072 1.13v11.937c0 .976.754 1.77 1.68 1.77h49.244c.927 0 1.68-.794 1.68-1.77V45.641c0-.624-.48-1.13-1.071-1.13zm-.609-17.534H25.96c-.927 0-1.68.794-1.68 1.77v11.938c0 .623.479 1.129 1.07 1.129.593 0 1.072-.506 1.072-1.13v-11.45H74.74v11.45c0 .624.48 1.13 1.072 1.13.592 0 1.072-.506 1.072-1.13V28.748c0-.977-.754-1.77-1.68-1.77z"></path>
    </g>
    <path d="M154.996 45.912l6.864-36.47h10.471l-11.312 51.256h-10.576l-8.301-34.288-8.3 34.288h-10.576L111.953 9.442h10.472l6.899 36.4 8.406-36.4h8.895l8.371 36.47zm53.723-7.428h-20.172v13.73h23.674v8.484H178.04V9.442h34.111v8.554h-23.604v12.216h20.172v8.272zm9.666 22.214V9.442h17.862c6.187 0 10.88 1.197 14.078 3.59 3.199 2.371 4.798 5.856 4.798 10.456 0 2.511-.642 4.729-1.926 6.653-1.284 1.901-3.07 3.298-5.358 4.19 2.615.657 4.669 1.983 6.164 3.977 1.517 1.995 2.276 4.436 2.276 7.323 0 4.928-1.564 8.66-4.693 11.194-3.128 2.535-7.588 3.826-13.378 3.873h-19.823zm10.507-22.32v13.836h9.001c2.474 0 4.401-.587 5.778-1.76 1.401-1.197 2.101-2.84 2.101-4.929 0-4.694-2.416-7.076-7.249-7.146h-9.631zm0-7.462h7.775c5.3-.094 7.95-2.218 7.95-6.372 0-2.323-.677-3.99-2.031-4.999-1.331-1.032-3.444-1.549-6.339-1.549h-7.355v12.92zM117.349 97.019v-18.38h5.581c1.594 0 3.019.367 4.273 1.099 1.262.724 2.246 1.759 2.952 3.105.706 1.338 1.059 2.861 1.059 4.57v.845c0 1.709-.349 3.228-1.046 4.557-.69 1.33-1.665 2.36-2.928 3.093-1.262.732-2.687 1.102-4.273 1.11h-5.618zm3.737-15.312v12.27h1.806c1.462 0 2.579-.484 3.352-1.452.772-.968 1.166-2.352 1.183-4.153V87.4c0-1.868-.382-3.282-1.146-4.241-.764-.968-1.881-1.452-3.351-1.452h-1.844zm23.769 7.346h-7.175v4.923h8.421v3.043h-12.159v-18.38h12.134v3.068h-8.396v4.38h7.175v2.966zm10.141 3.409l4.111-13.822h4.16l-6.316 18.379h-3.899l-6.291-18.38h4.149l4.086 13.823zm20.903-3.409h-7.175v4.923h8.421v3.043h-12.158v-18.38h12.133v3.068h-8.396v4.38h7.175v2.966zm7.176 4.923h7.935v3.043h-11.672v-18.38h3.737v15.337zm24.193-5.73c0 1.809-.316 3.395-.947 4.758-.631 1.364-1.537 2.416-2.716 3.156-1.171.74-2.516 1.11-4.036 1.11-1.503 0-2.845-.365-4.024-1.097-1.179-.732-2.093-1.776-2.741-3.13-.647-1.364-.975-2.93-.984-4.696v-.91c0-1.808.32-3.399.959-4.77.648-1.38 1.558-2.437 2.729-3.169 1.179-.74 2.524-1.11 4.036-1.11 1.511 0 2.853.37 4.024 1.11 1.179.732 2.088 1.788 2.728 3.168.648 1.372.972 2.958.972 4.76v.82zm-3.787-.834c0-1.927-.341-3.39-1.022-4.392-.681-1.002-1.653-1.502-2.915-1.502-1.254 0-2.222.496-2.903 1.49-.681.984-1.025 2.431-1.034 4.341v.897c0 1.876.341 3.332 1.022 4.367.681 1.035 1.661 1.553 2.94 1.553 1.254 0 2.217-.497 2.89-1.49.673-1.001 1.013-2.457 1.022-4.367v-.897zm10.24 3.131v6.475h-3.738V78.64h7.076c1.362 0 2.558.252 3.588.757 1.038.505 1.835 1.224 2.392 2.158.556.926.835 1.982.835 3.169 0 1.8-.611 3.223-1.832 4.266-1.212 1.035-2.894 1.553-5.045 1.553h-3.276zm0-3.067h3.338c.989 0 1.74-.236 2.255-.707.523-.472.785-1.145.785-2.02 0-.9-.262-1.628-.785-2.184-.523-.555-1.246-.841-2.168-.858h-3.425v5.769zm23.644 1.577h-7.175v4.923h8.421v3.043h-12.159v-18.38h12.134v3.068h-8.396v4.38h7.175v2.966zm10.153 1.237h-2.977v6.728h-3.738V78.64h6.74c2.143 0 3.795.484 4.958 1.451 1.163.968 1.744 2.336 1.744 4.103 0 1.254-.27 2.301-.81 3.143-.531.833-1.341 1.498-2.429 1.994l3.924 7.51v.178h-4.011l-3.401-6.729zm-2.977-3.067h3.014c.939 0 1.666-.24 2.18-.72.515-.487.773-1.156.773-2.006 0-.867-.245-1.549-.735-2.045-.482-.497-1.225-.745-2.23-.745h-3.002v5.516z" fill="#FCFCFC"></path>
    <defs>
      <clipPath id="clip0">
        <path fill="#fff" transform="translate(18.884 18.884)" d="M0 0h97.116v97.116H0z"></path>
      </clipPath>
    </defs>
  </symbol>
</svg>

